<?xml version="1.0" standalone="no"?><!DOCTYPE svg PUBLIC "-//W3C//DTD SVG 1.1//EN" "http://www.w3.org/Graphics/SVG/1.1/DTD/svg11.dtd"><svg t="1503984381565" class="icon" style="" viewBox="0 0 1024 1024" version="1.1" xmlns="http://www.w3.org/2000/svg" p-id="10125" xmlns:xlink="http://www.w3.org/1999/xlink" width="200" height="200"><defs><style type="text/css"></style></defs><path d="M765.185396 835.277778H258.81358c-107.502409 0-194.931644-87.429235-194.931644-194.931645V383.653867c0-107.502409 87.430258-194.931644 194.931644-194.931645h506.371816c107.502409 0 194.931644 87.430258 194.931645 194.931645v256.692266c0.001023 107.501386-87.429235 194.931644-194.931645 194.931645zM258.81358 205.191312c-98.4308 0-178.462554 80.031754-178.462554 178.462555v256.692266c0 98.4308 80.031754 178.462554 178.462554 178.462555h506.371816c98.4308 0 178.462554-80.031754 178.462555-178.462555V383.653867c0-98.4308-80.031754-178.462554-178.462555-178.462555H258.81358z" fill="#2D2D2D" p-id="10126"></path></svg>